<?xml version="1.0" encoding="UTF-8" standalone="no"?>
<!-- Created with Inkscape (http://www.inkscape.org/) -->

<svg
   xmlns:dc="http://purl.org/dc/elements/1.1/"
   xmlns:cc="http://creativecommons.org/ns#"
   xmlns:rdf="http://www.w3.org/1999/02/22-rdf-syntax-ns#"
   xmlns:svg="http://www.w3.org/2000/svg"
   xmlns="http://www.w3.org/2000/svg"
   xmlns:sodipodi="http://sodipodi.sourceforge.net/DTD/sodipodi-0.dtd"
   xmlns:inkscape="http://www.inkscape.org/namespaces/inkscape"
   width="210mm"
   height="297mm"
   viewBox="0 0 744.09448819 1052.3622047"
   id="svg2"
   version="1.1"
   inkscape:version="0.91 r13725"
   inkscape:export-filename="/Users/carl/Desktop/hash.png"
   inkscape:export-xdpi="89.800003"
   inkscape:export-ydpi="89.800003"
   sodipodi:docname="icon.svg">
  <defs
     id="defs4" />
  <sodipodi:namedview
     id="base"
     pagecolor="#ffffff"
     bordercolor="#666666"
     borderopacity="1.0"
     inkscape:pageopacity="0.0"
     inkscape:pageshadow="2"
     inkscape:zoom="0.38254353"
     inkscape:cx="348.52797"
     inkscape:cy="515.19489"
     inkscape:document-units="px"
     inkscape:current-layer="layer1"
     showgrid="false"
     inkscape:window-width="1879"
     inkscape:window-height="1155"
     inkscape:window-x="41"
     inkscape:window-y="0"
     inkscape:window-maximized="1" />
  <metadata
     id="metadata7">
    <rdf:RDF>
      <cc:Work
         rdf:about="">
        <dc:format>image/svg+xml</dc:format>
        <dc:type
           rdf:resource="http://purl.org/dc/dcmitype/StillImage" />
        <dc:title></dc:title>
      </cc:Work>
    </rdf:RDF>
  </metadata>
  <g
     inkscape:label="Layer 1"
     inkscape:groupmode="layer"
     id="layer1">
    <path
       style="fill:none;fill-rule:evenodd;stroke:#000000;stroke-width:1px;stroke-linecap:butt;stroke-linejoin:miter;stroke-opacity:1"
       d="m 302.67904,597.29348 37.1056,-143.2883 18.66949,11.43506 -48.77403,136.28725 z"
       id="path3413"
       inkscape:connector-curvature="0" />
    <path
       style="fill:none;fill-rule:evenodd;stroke:#000000;stroke-width:1px;stroke-linecap:butt;stroke-linejoin:miter;stroke-opacity:1"
       d="m 338.38443,627.6314 27.30413,-122.75187 20.30306,-55.30835 22.63675,9.33474 -33.3717,77.01163 z"
       id="path3415"
       inkscape:connector-curvature="0" />
    <path
       style="fill:none;fill-rule:evenodd;stroke:#000000;stroke-width:1px;stroke-linecap:butt;stroke-linejoin:miter;stroke-opacity:1"
       d="m 306.64631,489.24383 89.8469,-2.56705 -7.70116,17.96938 -72.811,3.03379 z"
       id="path3417"
       inkscape:connector-curvature="0" />
    <path
       style="fill:none;fill-rule:evenodd;stroke:#000000;stroke-width:1px;stroke-linecap:butt;stroke-linejoin:miter;stroke-opacity:1"
       d="m 279.34218,541.05166 136.98736,-6.06759 8.40127,2.80043 -19.13623,9.10137 -116.91765,5.13411 z"
       id="path3419"
       inkscape:connector-curvature="0" />
    <path
       style="fill:#000000"
       d="m 331.57451,487.80815 c -0.001,-0.27182 8.39379,-32.93312 8.4921,-33.03956 0.03,-0.0325 16.28154,9.88218 17.57381,10.72138 0.17985,0.1168 -0.96991,3.61531 -3.645,11.09106 l -3.90773,10.92045 -3.82706,0.14567 c -11.46149,0.43629 -14.68488,0.47163 -14.68612,0.161 z"
       id="path3461"
       inkscape:connector-curvature="0" />
    <path
       style="fill:#000000"
       d="m 372.97184,486.456 c 0.23543,-0.90027 13.08833,-35.85097 13.25461,-36.04303 0.15632,-0.18057 21.11691,8.28822 21.54625,8.70543 0.17218,0.1673 -11.06095,26.48888 -11.49316,26.93088 -0.13182,0.13482 -18.48275,0.82783 -22.87583,0.8639 -0.43643,0.004 -0.52723,-0.0925 -0.43187,-0.45718 z"
       id="path3463"
       inkscape:connector-curvature="0" />
    <path
       style="fill:#000000"
       d="m 366.18836,504.83899 c 1.8081,-5.05902 6.12508,-16.68711 6.24526,-16.82202 0.15462,-0.17357 22.40936,-0.96347 23.01374,-0.81684 0.17494,0.0424 -1.06904,3.21296 -3.3226,8.46828 -1.98123,4.62025 -3.63395,8.43216 -3.67271,8.47092 -0.0615,0.0615 -20.36621,0.9818 -21.81764,0.98886 -0.341,0.002 -0.51068,-0.10836 -0.44605,-0.2892 z"
       id="path3465"
       inkscape:connector-curvature="0" />
    <path
       style="fill:#000000"
       d="m 326.6722,506.60407 c 0,-0.23936 4.45736,-17.44999 4.54102,-17.53365 0.15289,-0.15289 18.1095,-0.59518 18.25504,-0.44964 0.13138,0.13138 -5.59198,16.5764 -5.99738,17.23236 -0.0815,0.13179 -3.37713,0.37411 -7.71158,0.56702 -8.79893,0.3916 -9.0871,0.39743 -9.0871,0.18391 z"
       id="path3467"
       inkscape:connector-curvature="0" />
    <path
       style="fill:#000000"
       d="m 344.47983,505.77299 c 0.0613,-0.16053 1.4459,-4.02206 3.07688,-8.58119 1.63098,-4.55912 3.0894,-8.40589 3.24093,-8.54838 0.18343,-0.17249 3.66226,-0.34939 10.40942,-0.52933 5.57366,-0.14865 10.1562,-0.24222 10.18344,-0.20794 0.0357,0.0449 -5.51959,15.23436 -6.24619,17.07871 -0.0588,0.1492 -15.8025,0.9782 -20.34232,1.07114 -0.25286,0.005 -0.38715,-0.1128 -0.32216,-0.28301 z"
       id="path3469"
       inkscape:connector-curvature="0" />
    <path
       style="fill:#000000"
       d="m 311.87718,498.58839 c -2.42169,-4.76412 -4.35351,-8.7116 -4.29292,-8.77219 0.20962,-0.20962 22.31529,-0.91648 22.51192,-0.71984 0.0602,0.0602 -0.89573,3.99693 -2.12428,8.74831 -1.22854,4.75138 -2.23371,8.69472 -2.23371,8.76299 0,0.18414 -2.02079,0.35652 -5.95485,0.50794 l -3.50309,0.13483 -4.40307,-8.66204 z"
       id="path3471"
       inkscape:connector-curvature="0" />
    <path
       style="fill:#000000"
       d="m 318.38988,538.75782 c -0.10007,-0.17452 7.81872,-30.67651 8.0173,-30.88145 0.17634,-0.18198 16.3722,-0.95977 16.53777,-0.7942 0.0718,0.0718 -10.81563,30.86089 -11.01301,31.14434 -0.0823,0.11818 -13.4776,0.64373 -13.54206,0.53131 z"
       id="path3473"
       inkscape:connector-curvature="0" />
    <path
       style="fill:#000000"
       d="m 359.13508,536.73295 c 0.008,-0.5654 6.65472,-30.4017 6.8064,-30.55338 0.12539,-0.12539 21.93237,-1.10237 22.047,-0.98774 0.0817,0.0817 -13.19816,30.80677 -13.4151,31.03791 -0.0825,0.0879 -2.72441,0.27163 -5.87085,0.40822 -3.14644,0.13659 -6.58767,0.3105 -7.64718,0.38646 -1.76625,0.12664 -1.92588,0.10241 -1.92027,-0.29147 z"
       id="path3475"
       inkscape:connector-curvature="0" />
    <path
       style="fill:#000000"
       d="m 356.56044,548.29387 c 0,-0.17043 0.49336,-2.54062 1.09637,-5.26709 l 1.09638,-4.95722 0.94676,-0.11504 c 1.64569,-0.19996 14.16872,-0.64914 14.30478,-0.51308 0.0716,0.0716 -0.82173,2.47165 -1.98508,5.33355 l -2.11516,5.20346 -2.76087,0.14271 c -8.86953,0.45844 -10.58318,0.48641 -10.58318,0.17271 z"
       id="path3477"
       inkscape:connector-curvature="0" />
    <path
       style="fill:#000000"
       d="m 316.63055,545.18057 c 0.7558,-2.91933 1.40673,-5.33375 1.44651,-5.36539 0.11013,-0.0876 13.31038,-0.62606 13.38727,-0.54611 0.0775,0.0806 -3.43779,9.98028 -3.68184,10.36865 -0.10238,0.16293 -1.69474,0.31494 -4.31394,0.41183 -2.28341,0.0845 -5.06528,0.21778 -6.18192,0.29624 l -2.03027,0.14265 1.37419,-5.30787 z"
       id="path3479"
       inkscape:connector-curvature="0" />
    <path
       style="fill:#000000"
       d="m 328.77764,549.67134 c 0.0139,-0.20748 3.70806,-10.26949 3.80638,-10.36781 0.18046,-0.18046 1.73696,-0.27036 13.89757,-0.80269 6.07918,-0.26611 11.11274,-0.42416 11.18569,-0.35122 0.0729,0.0729 -0.37685,2.44469 -0.99954,5.27055 l -1.13217,5.13792 -0.71345,0.10505 c -1.44722,0.21308 -26.05507,1.16567 -26.04448,1.0082 z"
       id="path3481"
       inkscape:connector-curvature="0" />
    <path
       style="fill:#000000"
       d="m 284.73887,546.69315 c -2.30081,-2.70863 -4.21304,-5.00903 -4.2494,-5.112 -0.0364,-0.10297 1.59231,-0.2467 3.61927,-0.31941 2.02697,-0.0727 10.2263,-0.42133 18.22074,-0.77472 7.99443,-0.35339 14.57748,-0.59868 14.629,-0.54508 0.11746,0.12221 -2.49152,10.16518 -2.6925,10.36448 -0.0811,0.0804 -4.7044,0.34544 -10.27408,0.58904 -5.56969,0.24359 -11.23889,0.5058 -12.59823,0.58268 l -2.47152,0.13979 -4.18328,-4.92478 z"
       id="path3483"
       inkscape:connector-curvature="0" />
    <path
       style="fill:#000000"
       d="m 306.24272,599.03331 c -1.54005,-0.98954 -2.82765,-1.9538 -2.86134,-2.14281 -0.062,-0.34826 11.51048,-45.26535 11.71494,-45.46982 0.13403,-0.13402 12.27639,-0.67868 12.27639,-0.55066 0,0.50082 -17.91502,49.99219 -18.09172,49.97952 -0.131,-0.009 -1.49822,-0.82669 -3.03827,-1.81623 z"
       id="path3485"
       inkscape:connector-curvature="0" />
    <path
       style="fill:#000000"
       d="m 340.91394,618.57384 c -0.003,-0.55043 15.22019,-68.72094 15.3862,-68.89907 0.19271,-0.20675 12.81107,-0.78172 13.00042,-0.59237 0.20314,0.20315 -27.76674,69.59678 -28.096,69.70653 -0.15881,0.0529 -0.28959,-0.0439 -0.29062,-0.21509 z"
       id="path3487"
       inkscape:connector-curvature="0" />
    <path
       style="fill:#000000"
       d="m 371.12279,547.49113 c 0.0904,-0.24567 1.02765,-2.62983 2.08273,-5.29813 1.51062,-3.82037 2.01756,-4.87091 2.38532,-4.94306 0.25685,-0.0504 9.52451,-0.47833 20.59481,-0.951 l 20.1278,-0.85938 3.33913,1.10315 c 1.83652,0.60674 3.41828,1.17445 3.51501,1.26159 0.0967,0.0871 -3.8436,2.06725 -8.75632,4.40024 l -8.9322,4.2418 -13.19285,0.58614 c -22.59489,1.00386 -21.35421,0.97697 -21.16343,0.45865 z"
       id="path3489"
       inkscape:connector-curvature="0" />
  </g>
</svg>
